<mxfile host="Electron" modified="2024-04-29T17:13:15.633Z" agent="Mozilla/5.0 (Windows NT 10.0; Win64; x64) AppleWebKit/537.36 (KHTML, like Gecko) draw.io/22.0.0 Chrome/114.0.5735.289 Electron/25.8.3 Safari/537.36" etag="-iLeK7XjdDi1X63Viz9_" version="22.0.0" type="device">
  <diagram name="Страница — 1" id="gGU0pYqspVu6Y8VHLPDK">
    <mxGraphModel dx="683" dy="402" grid="1" gridSize="10" guides="1" tooltips="1" connect="1" arrows="1" fold="1" page="1" pageScale="1" pageWidth="1100" pageHeight="850" math="0" shadow="0">
      <root>
        <mxCell id="0" />
        <mxCell id="1" parent="0" />
        <mxCell id="5svPULwubfCKXM8R7IGq-1" value="" style="ellipse;html=1;shape=startState;fillColor=#000000;strokeColor=#ff0000;" vertex="1" parent="1">
          <mxGeometry x="140" y="90" width="30" height="30" as="geometry" />
        </mxCell>
        <mxCell id="5svPULwubfCKXM8R7IGq-2" value="" style="edgeStyle=orthogonalEdgeStyle;html=1;verticalAlign=bottom;endArrow=open;endSize=8;strokeColor=#ff0000;rounded=0;" edge="1" source="5svPULwubfCKXM8R7IGq-1" parent="1">
          <mxGeometry relative="1" as="geometry">
            <mxPoint x="155" y="180" as="targetPoint" />
          </mxGeometry>
        </mxCell>
        <mxCell id="5svPULwubfCKXM8R7IGq-3" value="Выбор таблицы" style="rounded=1;whiteSpace=wrap;html=1;arcSize=40;fontColor=#000000;fillColor=#ffffc0;strokeColor=#ff0000;" vertex="1" parent="1">
          <mxGeometry x="95" y="180" width="120" height="40" as="geometry" />
        </mxCell>
        <mxCell id="5svPULwubfCKXM8R7IGq-4" value="" style="edgeStyle=orthogonalEdgeStyle;html=1;verticalAlign=bottom;endArrow=open;endSize=8;strokeColor=#ff0000;rounded=0;" edge="1" source="5svPULwubfCKXM8R7IGq-3" parent="1">
          <mxGeometry relative="1" as="geometry">
            <mxPoint x="155" y="280" as="targetPoint" />
          </mxGeometry>
        </mxCell>
        <mxCell id="5svPULwubfCKXM8R7IGq-5" value="Отображение таблицы" style="rounded=1;whiteSpace=wrap;html=1;arcSize=40;fontColor=#000000;fillColor=#ffffc0;strokeColor=#ff0000;" vertex="1" parent="1">
          <mxGeometry x="95" y="280" width="120" height="40" as="geometry" />
        </mxCell>
        <mxCell id="5svPULwubfCKXM8R7IGq-6" value="" style="edgeStyle=orthogonalEdgeStyle;html=1;verticalAlign=bottom;endArrow=open;endSize=8;strokeColor=#ff0000;rounded=0;" edge="1" source="5svPULwubfCKXM8R7IGq-5" parent="1">
          <mxGeometry relative="1" as="geometry">
            <mxPoint x="155" y="380" as="targetPoint" />
          </mxGeometry>
        </mxCell>
      </root>
    </mxGraphModel>
  </diagram>
</mxfile>
